M48
;Layer_Color=9474304
;FILE_FORMAT=4:4
METRIC,LZ
;TYPE=PLATED
T1F00S00C0.3000
T2F00S00C0.5000
T3F00S00C0.9000
T4F00S00C1.0000
T5F00S00C1.1000
T6F00S00C1.6000
T7F00S00C3.0000
T8F00S00C3.3000
T9F00S00C3.5000
%
T01
X00896351Y00217967
X00845889Y00131797
X0032533Y00284646
X00222163Y0031
X0019685Y0035235
X0019304Y0037592
X002159
X00240665Y00375285
Y0039624
X0025075Y00405
X0027305Y0040513
X002475Y00358824
X00156Y0036
X00129Y00383
X0012065Y00394
X0015248Y00410288
X0015875Y0045593
X0014605
X00121Y00456
X0010225Y00486928
Y00503714
X0017145Y00497536
X002032Y0049276
X00218226Y00494879
X0020955Y0045593
X0017145Y0028948
Y0051181
X0015875
X0010225Y005205
X00234315Y0050725
X00268605
X00263391Y00713338
X00229405
X00203517Y0077751
X00159684
X00506912Y00773002
X00545552
T02
X00682Y00215
X006955Y00591
X00654
X006125
T03
X001524Y0014224
X001778
X002032
X001905Y0016764
X001651
X001397
T04
X0004699Y0021971
Y0024511
Y0027051
Y0029591
Y0032131
Y0034671
Y0037211
Y0039751
Y0042291
Y0044831
Y0047371
Y0049911
Y0052451
Y0054991
Y0057531
Y0060071
X0089507Y00657352
Y00682752
X005535Y0094667
X005281
X005027
X004773
X004519
X004265
X002667Y0091567
X002413
X002159
X001905
X001651
X001397
T05
X0092047Y00657352
Y00682752
T06
X00682Y00675335
X00802Y00657335
X00682Y00895335
X00802Y00933335
T07
X00823113Y00078017
X00853613Y00029017
T08
X001207Y0007864
X002223
T09
X00793613Y00029017
M30
