%FSLAX42Y42*%
%MOMM*%
G71*
G01*
G75*
G04 Layer_Color=65535*
%ADD10R,1.50X0.30*%
%ADD11R,0.30X1.50*%
%ADD12O,0.30X1.50*%
%ADD13R,5.50X2.00*%
%ADD14R,1.68X1.52*%
%ADD15R,1.10X1.00*%
%ADD16R,1.00X1.10*%
%ADD17R,1.30X1.50*%
%ADD18R,1.50X1.30*%
%ADD19R,2.00X1.20*%
%ADD20R,5.60X5.60*%
%ADD21C,1.00*%
%ADD22C,0.25*%
%ADD23C,0.50*%
%ADD24C,2.00*%
%ADD25R,2.00X2.00*%
%ADD26C,1.20*%
%ADD27C,0.50*%
%ADD28C,3.30*%
%ADD29C,2.00*%
%ADD30C,0.20*%
%ADD31C,0.10*%
D22*
X2215Y-5350D02*
X3065D01*
Y-4150D01*
X2215Y-5350D02*
Y-4150D01*
X3065D01*
X3135Y-5360D02*
X3985D01*
Y-4160D01*
X3135Y-5360D02*
Y-4160D01*
X3985D01*
X2575Y-612D02*
X2525D01*
X2550D01*
Y-765D01*
X2575Y-739D01*
X1999Y-612D02*
X2101D01*
X1999Y-714D01*
Y-739D01*
X2025Y-765D01*
X2075D01*
X2101Y-739D01*
X1601D02*
X1575Y-765D01*
X1525D01*
X1499Y-739D01*
Y-714D01*
X1525Y-688D01*
X1550D01*
X1525D01*
X1499Y-663D01*
Y-638D01*
X1525Y-612D01*
X1575D01*
X1601Y-638D01*
X1691Y-1172D02*
Y-1020D01*
X1767D01*
X1793Y-1045D01*
Y-1096D01*
X1767Y-1121D01*
X1691D01*
X1920Y-1020D02*
X1869D01*
X1843Y-1045D01*
Y-1147D01*
X1869Y-1172D01*
X1920D01*
X1945Y-1147D01*
Y-1045D01*
X1920Y-1020D01*
X1996D02*
X2097D01*
X2047D01*
Y-1172D01*
X2148D02*
Y-1070D01*
X2199Y-1020D01*
X2250Y-1070D01*
Y-1172D01*
Y-1096D01*
X2148D01*
X2300Y-1172D02*
Y-1020D01*
X2377D01*
X2402Y-1045D01*
Y-1096D01*
X2377Y-1121D01*
X2300D01*
X2351D02*
X2402Y-1172D01*
X2453Y-1020D02*
Y-1172D01*
X2529D01*
X2554Y-1147D01*
Y-1045D01*
X2529Y-1020D01*
X2453D01*
D23*
X3340Y-2230D02*
G03*
X3340Y-2230I-10J0D01*
G01*
D30*
X3041Y-2895D02*
G03*
X3117Y-2895I38J0D01*
G01*
X2965D02*
G03*
X3041Y-2895I38J0D01*
G01*
X2888D02*
G03*
X2965Y-2895I38J0D01*
G01*
X582Y-5580D02*
G03*
X582Y-5580I-162J0D01*
G01*
X1598D02*
G03*
X1598Y-5580I-162J0D01*
G01*
X783Y-3673D02*
X912Y-3802D01*
X783Y-3673D02*
Y-2919D01*
X1666D01*
Y-3802D02*
Y-2919D01*
X912Y-3802D02*
X1666D01*
X542Y-1925D02*
X1882D01*
X542Y-1425D02*
X1882D01*
Y-1494D02*
Y-1425D01*
Y-1925D02*
Y-1856D01*
X542Y-1925D02*
Y-1856D01*
Y-1494D02*
Y-1425D01*
X2727Y-3300D02*
X2813D01*
X2770Y-3312D02*
X2808Y-3351D01*
X2732D02*
X2808D01*
X2732D02*
X2770Y-3312D01*
X3717Y-3310D02*
X3803D01*
X3760Y-3322D02*
X3798Y-3361D01*
X3722D02*
X3798D01*
X3722D02*
X3760Y-3322D01*
X2304Y-3018D02*
Y-2953D01*
X2496Y-3018D02*
Y-2953D01*
X778Y-4356D02*
X843D01*
X778Y-4164D02*
X843D01*
X466Y-853D02*
Y-788D01*
X274Y-853D02*
Y-788D01*
X1006Y-852D02*
Y-788D01*
X814Y-852D02*
Y-788D01*
X3416Y-852D02*
Y-788D01*
X3224Y-852D02*
Y-788D01*
X3886Y-852D02*
Y-788D01*
X3694Y-852D02*
Y-788D01*
X2699Y-2506D02*
Y-2354D01*
X3125Y-2430D02*
Y-2354D01*
Y-2506D02*
Y-2430D01*
X3678Y-1712D02*
X3831D01*
X3755Y-2138D02*
X3831D01*
X3678D02*
X3755D01*
X3174Y-3349D02*
X3326D01*
X3250Y-3775D02*
X3326D01*
X3174D02*
X3250D01*
X134Y-3236D02*
X286D01*
X134Y-2810D02*
X210D01*
X286D01*
X2739Y-3070D02*
X2790D01*
X2688Y-2690D02*
X2790D01*
X2688Y-3070D02*
X2739D01*
X3269Y-3071D02*
X3320D01*
X3218Y-2690D02*
X3320D01*
X3218Y-3071D02*
X3269D01*
X399Y-3220D02*
X450D01*
X348Y-2840D02*
X450D01*
X348Y-3220D02*
X399D01*
X1125Y-2160D02*
Y-2109D01*
X745Y-2211D02*
Y-2109D01*
X1125Y-2211D02*
Y-2160D01*
X1555Y-2160D02*
Y-2109D01*
X1174Y-2211D02*
Y-2109D01*
X1555Y-2211D02*
Y-2160D01*
X2024Y-3410D02*
X2075D01*
X2024Y-3790D02*
X2126D01*
X2075Y-3410D02*
X2126D01*
X400Y-3675D02*
X451D01*
X349Y-3295D02*
X451D01*
X349Y-3675D02*
X400D01*
X1832Y-2517D02*
Y-2467D01*
X1452Y-2568D02*
Y-2467D01*
X1832Y-2568D02*
Y-2517D01*
Y-2328D02*
Y-2277D01*
X1452Y-2378D02*
Y-2277D01*
X1832Y-2378D02*
Y-2328D01*
X2075Y-3340D02*
X2126D01*
X2024Y-2959D02*
X2126D01*
X2024Y-3340D02*
X2075D01*
X1005Y-4311D02*
Y-4260D01*
X1386Y-4311D02*
Y-4209D01*
X1005Y-4260D02*
Y-4209D01*
X2400Y-3796D02*
X2438Y-3758D01*
X2362D02*
X2438D01*
X2362D02*
X2400Y-3796D01*
X2357Y-3809D02*
X2443D01*
X332Y-187D02*
X370Y-149D01*
X332Y-187D02*
X408D01*
X370Y-149D02*
X408Y-187D01*
X327Y-136D02*
X413D01*
X872Y-187D02*
X910Y-149D01*
X872Y-187D02*
X948D01*
X910Y-149D02*
X948Y-187D01*
X867Y-136D02*
X953D01*
X3282Y-187D02*
X3320Y-149D01*
X3282Y-187D02*
X3358D01*
X3320Y-149D02*
X3358Y-187D01*
X3277Y-136D02*
X3363D01*
X3752Y-187D02*
X3790Y-149D01*
X3752Y-187D02*
X3828D01*
X3790Y-149D02*
X3828Y-187D01*
X3747Y-136D02*
X3833D01*
X2968Y-2244D02*
Y-1406D01*
X2913D02*
X2968D01*
X2913Y-2244D02*
X2968D01*
X2350Y-10D02*
Y1490D01*
X1750D02*
X2350D01*
X1750Y-10D02*
Y1490D01*
X1200Y-10D02*
X1750D01*
X1200Y-960D02*
Y-10D01*
Y-960D02*
X2900D01*
Y-10D01*
X2350D02*
X2900D01*
X268Y-4520D02*
X1588D01*
X268Y-6370D02*
X1588D01*
Y-4520D01*
X268Y-6370D02*
Y-4520D01*
X1509Y-4217D02*
X1492Y-4200D01*
X1459D01*
X1442Y-4217D01*
Y-4283D01*
X1459Y-4300D01*
X1492D01*
X1509Y-4283D01*
X1542Y-4300D02*
X1575D01*
X1559D01*
Y-4200D01*
X1542Y-4217D01*
X2047Y-2833D02*
X2030Y-2850D01*
Y-2883D01*
X2047Y-2900D01*
X2113D01*
X2130Y-2883D01*
Y-2850D01*
X2113Y-2833D01*
X2130Y-2733D02*
Y-2800D01*
X2063Y-2733D01*
X2047D01*
X2030Y-2750D01*
Y-2783D01*
X2047Y-2800D01*
X1234Y-2289D02*
X1217Y-2273D01*
X1184D01*
X1168Y-2289D01*
Y-2356D01*
X1184Y-2373D01*
X1217D01*
X1234Y-2356D01*
X1267Y-2289D02*
X1284Y-2273D01*
X1317D01*
X1334Y-2289D01*
Y-2306D01*
X1317Y-2323D01*
X1301D01*
X1317D01*
X1334Y-2339D01*
Y-2356D01*
X1317Y-2373D01*
X1284D01*
X1267Y-2356D01*
X1224Y-2484D02*
X1207Y-2468D01*
X1174D01*
X1157Y-2484D01*
Y-2551D01*
X1174Y-2567D01*
X1207D01*
X1224Y-2551D01*
X1307Y-2567D02*
Y-2468D01*
X1257Y-2518D01*
X1324D01*
X367Y-3863D02*
X350Y-3880D01*
Y-3913D01*
X367Y-3930D01*
X433D01*
X450Y-3913D01*
Y-3880D01*
X433Y-3863D01*
X350Y-3763D02*
Y-3830D01*
X400D01*
X383Y-3797D01*
Y-3780D01*
X400Y-3763D01*
X433D01*
X450Y-3780D01*
Y-3813D01*
X433Y-3830D01*
X2042Y-3958D02*
X2025Y-3975D01*
Y-4008D01*
X2042Y-4025D01*
X2108D01*
X2125Y-4008D01*
Y-3975D01*
X2108Y-3958D01*
X2025Y-3858D02*
X2042Y-3892D01*
X2075Y-3925D01*
X2108D01*
X2125Y-3908D01*
Y-3875D01*
X2108Y-3858D01*
X2092D01*
X2075Y-3875D01*
Y-3925D01*
X1697Y-2117D02*
X1680Y-2100D01*
X1647D01*
X1630Y-2117D01*
Y-2183D01*
X1647Y-2200D01*
X1680D01*
X1697Y-2183D01*
X1730Y-2100D02*
X1797D01*
Y-2117D01*
X1730Y-2183D01*
Y-2200D01*
X567Y-2127D02*
X550Y-2110D01*
X517D01*
X500Y-2127D01*
Y-2193D01*
X517Y-2210D01*
X550D01*
X567Y-2193D01*
X600Y-2127D02*
X617Y-2110D01*
X650D01*
X667Y-2127D01*
Y-2143D01*
X650Y-2160D01*
X667Y-2177D01*
Y-2193D01*
X650Y-2210D01*
X617D01*
X600Y-2193D01*
Y-2177D01*
X617Y-2160D01*
X600Y-2143D01*
Y-2127D01*
X617Y-2160D02*
X650D01*
X177Y-2648D02*
X160Y-2665D01*
Y-2698D01*
X177Y-2715D01*
X243D01*
X260Y-2698D01*
Y-2665D01*
X243Y-2648D01*
Y-2615D02*
X260Y-2598D01*
Y-2565D01*
X243Y-2548D01*
X177D01*
X160Y-2565D01*
Y-2598D01*
X177Y-2615D01*
X193D01*
X210Y-2598D01*
Y-2548D01*
X366Y-2689D02*
X349Y-2706D01*
Y-2739D01*
X366Y-2755D01*
X433D01*
X449Y-2739D01*
Y-2706D01*
X433Y-2689D01*
X449Y-2656D02*
Y-2622D01*
Y-2639D01*
X349D01*
X366Y-2656D01*
Y-2572D02*
X349Y-2556D01*
Y-2522D01*
X366Y-2506D01*
X433D01*
X449Y-2522D01*
Y-2556D01*
X433Y-2572D01*
X366D01*
X3251Y-3186D02*
X3235Y-3169D01*
X3201D01*
X3185Y-3186D01*
Y-3253D01*
X3201Y-3269D01*
X3235D01*
X3251Y-3253D01*
X3285Y-3269D02*
X3318D01*
X3301D01*
Y-3169D01*
X3285Y-3186D01*
X3368Y-3269D02*
X3401D01*
X3385D01*
Y-3169D01*
X3368Y-3186D01*
X3744Y-1553D02*
X3727Y-1536D01*
X3694D01*
X3677Y-1553D01*
Y-1619D01*
X3694Y-1636D01*
X3727D01*
X3744Y-1619D01*
X3777Y-1636D02*
X3811D01*
X3794D01*
Y-1536D01*
X3777Y-1553D01*
X3927Y-1636D02*
X3861D01*
X3927Y-1569D01*
Y-1553D01*
X3911Y-1536D01*
X3877D01*
X3861Y-1553D01*
X2392Y-2242D02*
X2375Y-2225D01*
X2342D01*
X2325Y-2242D01*
Y-2308D01*
X2342Y-2325D01*
X2375D01*
X2392Y-2308D01*
X2425Y-2325D02*
X2458D01*
X2442D01*
Y-2225D01*
X2425Y-2242D01*
X2508D02*
X2525Y-2225D01*
X2558D01*
X2575Y-2242D01*
Y-2258D01*
X2558Y-2275D01*
X2542D01*
X2558D01*
X2575Y-2292D01*
Y-2308D01*
X2558Y-2325D01*
X2525D01*
X2508Y-2308D01*
X3426Y-2929D02*
X3409Y-2946D01*
Y-2979D01*
X3426Y-2996D01*
X3493D01*
X3509Y-2979D01*
Y-2946D01*
X3493Y-2929D01*
X3509Y-2896D02*
Y-2862D01*
Y-2879D01*
X3409D01*
X3426Y-2896D01*
X3509Y-2762D02*
X3409D01*
X3459Y-2812D01*
Y-2746D01*
X2534Y-2788D02*
X2518Y-2805D01*
Y-2838D01*
X2534Y-2855D01*
X2601D01*
X2617Y-2838D01*
Y-2805D01*
X2601Y-2788D01*
X2617Y-2755D02*
Y-2722D01*
Y-2738D01*
X2518D01*
X2534Y-2755D01*
X2518Y-2605D02*
Y-2672D01*
X2568D01*
X2551Y-2638D01*
Y-2622D01*
X2568Y-2605D01*
X2601D01*
X2617Y-2622D01*
Y-2655D01*
X2601Y-2672D01*
X3540Y-335D02*
X3640D01*
Y-285D01*
X3623Y-268D01*
X3557D01*
X3540Y-285D01*
Y-335D01*
X3640Y-235D02*
Y-202D01*
Y-218D01*
X3540D01*
X3557Y-235D01*
X3070Y-330D02*
X3170D01*
Y-280D01*
X3153Y-263D01*
X3087D01*
X3070Y-280D01*
Y-330D01*
X3170Y-230D02*
Y-197D01*
Y-213D01*
X3070D01*
X3087Y-230D01*
X660Y-340D02*
X760D01*
Y-290D01*
X743Y-273D01*
X677D01*
X660Y-290D01*
Y-340D01*
X760Y-240D02*
Y-207D01*
Y-223D01*
X660D01*
X677Y-240D01*
X130Y-350D02*
X230D01*
Y-300D01*
X213Y-283D01*
X147D01*
X130Y-300D01*
Y-350D01*
X230Y-250D02*
Y-217D01*
Y-233D01*
X130D01*
X147Y-250D01*
X3685Y-3129D02*
Y-3229D01*
X3735D01*
X3752Y-3212D01*
Y-3145D01*
X3735Y-3129D01*
X3685D01*
X3852Y-3229D02*
X3785D01*
X3852Y-3162D01*
Y-3145D01*
X3835Y-3129D01*
X3802D01*
X3785Y-3145D01*
X2800Y-3150D02*
Y-3250D01*
X2850D01*
X2867Y-3233D01*
Y-3167D01*
X2850Y-3150D01*
X2800D01*
X2900Y-3167D02*
X2917Y-3150D01*
X2950D01*
X2967Y-3167D01*
Y-3183D01*
X2950Y-3200D01*
X2933D01*
X2950D01*
X2967Y-3217D01*
Y-3233D01*
X2950Y-3250D01*
X2917D01*
X2900Y-3233D01*
X2475Y-3235D02*
Y-3335D01*
X2525D01*
X2542Y-3318D01*
Y-3252D01*
X2525Y-3235D01*
X2475D01*
X2625Y-3335D02*
Y-3235D01*
X2575Y-3285D01*
X2642D01*
X2946Y-2590D02*
X2879D01*
Y-2640D01*
X2913D01*
X2879D01*
Y-2690D01*
X2979Y-2590D02*
Y-2690D01*
X3029D01*
X3046Y-2673D01*
Y-2657D01*
X3029Y-2640D01*
X2979D01*
X3029D01*
X3046Y-2623D01*
Y-2607D01*
X3029Y-2590D01*
X2979D01*
X3079Y-2690D02*
X3112D01*
X3096D01*
Y-2590D01*
X3079Y-2607D01*
X357Y-4350D02*
X323D01*
X340D01*
Y-4433D01*
X323Y-4450D01*
X307D01*
X290Y-4433D01*
X390Y-4450D02*
X423D01*
X407D01*
Y-4350D01*
X390Y-4367D01*
X3142Y-4077D02*
Y-3977D01*
X3192D01*
X3208Y-3994D01*
Y-4027D01*
X3192Y-4044D01*
X3142D01*
X3242Y-4077D02*
X3275D01*
X3258D01*
Y-3977D01*
X3242Y-3994D01*
X2270Y-4070D02*
Y-3970D01*
X2320D01*
X2337Y-3987D01*
Y-4020D01*
X2320Y-4037D01*
X2270D01*
X2437Y-4070D02*
X2370D01*
X2437Y-4003D01*
Y-3987D01*
X2420Y-3970D01*
X2387D01*
X2370Y-3987D01*
X1230Y-1130D02*
Y-1030D01*
X1280D01*
X1297Y-1047D01*
Y-1080D01*
X1280Y-1097D01*
X1230D01*
X1263D02*
X1297Y-1130D01*
X1330D02*
X1363D01*
X1347D01*
Y-1030D01*
X1330Y-1047D01*
X3642Y-902D02*
X3543D01*
Y-853D01*
X3559Y-836D01*
X3593D01*
X3609Y-853D01*
Y-902D01*
Y-869D02*
X3642Y-836D01*
Y-736D02*
Y-803D01*
X3576Y-736D01*
X3559D01*
X3543Y-753D01*
Y-786D01*
X3559Y-803D01*
X3138Y-910D02*
X3038D01*
Y-860D01*
X3054Y-843D01*
X3088D01*
X3104Y-860D01*
Y-910D01*
Y-877D02*
X3138Y-843D01*
Y-743D02*
Y-810D01*
X3071Y-743D01*
X3054D01*
X3038Y-760D01*
Y-793D01*
X3054Y-810D01*
X750Y-935D02*
X650D01*
Y-885D01*
X667Y-868D01*
X700D01*
X717Y-885D01*
Y-935D01*
Y-902D02*
X750Y-868D01*
Y-768D02*
Y-835D01*
X683Y-768D01*
X667D01*
X650Y-785D01*
Y-818D01*
X667Y-835D01*
X203Y-912D02*
X103D01*
Y-863D01*
X119Y-846D01*
X153D01*
X169Y-863D01*
Y-912D01*
Y-879D02*
X203Y-846D01*
Y-746D02*
Y-813D01*
X136Y-746D01*
X119D01*
X103Y-763D01*
Y-796D01*
X119Y-813D01*
X440Y-4310D02*
Y-4210D01*
X490D01*
X507Y-4227D01*
Y-4260D01*
X490Y-4277D01*
X440D01*
X473D02*
X507Y-4310D01*
X540Y-4227D02*
X557Y-4210D01*
X590D01*
X607Y-4227D01*
Y-4243D01*
X590Y-4260D01*
X573D01*
X590D01*
X607Y-4277D01*
Y-4293D01*
X590Y-4310D01*
X557D01*
X540Y-4293D01*
X2440Y-2750D02*
X2340D01*
Y-2700D01*
X2357Y-2683D01*
X2390D01*
X2407Y-2700D01*
Y-2750D01*
Y-2717D02*
X2440Y-2683D01*
Y-2600D02*
X2340D01*
X2390Y-2650D01*
Y-2583D01*
X585Y-2735D02*
Y-2818D01*
X602Y-2835D01*
X635D01*
X652Y-2818D01*
Y-2735D01*
X685Y-2835D02*
X718D01*
X702D01*
Y-2735D01*
X685Y-2752D01*
X2510Y-1260D02*
Y-1343D01*
X2527Y-1360D01*
X2560D01*
X2577Y-1343D01*
Y-1260D01*
X2677Y-1360D02*
X2610D01*
X2677Y-1293D01*
Y-1277D01*
X2660Y-1260D01*
X2627D01*
X2610Y-1277D01*
X240Y-1635D02*
Y-1652D01*
X273Y-1685D01*
X307Y-1652D01*
Y-1635D01*
X273Y-1685D02*
Y-1735D01*
X340D02*
X373D01*
X357D01*
Y-1635D01*
X340Y-1652D01*
D31*
X2451Y-3784D02*
X2464Y-3796D01*
Y-3771D02*
X2476Y-3784D01*
X307Y-149D02*
X319Y-161D01*
X294D02*
X307Y-174D01*
X847Y-149D02*
X859Y-161D01*
X834D02*
X847Y-174D01*
X3256Y-149D02*
X3269Y-161D01*
X3244D02*
X3256Y-174D01*
X3726Y-149D02*
X3739Y-161D01*
X3714D02*
X3726Y-174D01*
X3410Y-5553D02*
Y-5473D01*
X3436Y-5500D01*
X3463Y-5473D01*
Y-5553D01*
X3490D02*
Y-5500D01*
X3516Y-5473D01*
X3543Y-5500D01*
Y-5553D01*
Y-5513D01*
X3490D01*
X3570Y-5473D02*
X3596D01*
X3583D01*
Y-5553D01*
X3570D01*
X3596D01*
X3636D02*
Y-5473D01*
X3690Y-5553D01*
Y-5473D01*
X2527D02*
Y-5553D01*
X2567D01*
X2580Y-5540D01*
Y-5526D01*
X2567Y-5513D01*
X2527D01*
X2567D01*
X2580Y-5500D01*
Y-5486D01*
X2567Y-5473D01*
X2527D01*
X2607Y-5553D02*
Y-5500D01*
X2634Y-5473D01*
X2660Y-5500D01*
Y-5553D01*
Y-5513D01*
X2607D01*
X2687Y-5473D02*
X2740D01*
X2714D01*
Y-5553D01*
X2767D02*
Y-5540D01*
X2780D01*
Y-5553D01*
X2767D01*
X2547Y-5696D02*
X2600D01*
X2707D02*
X2760D01*
X2734Y-5669D02*
Y-5723D01*
X3443Y-5696D02*
X3496D01*
X3603D02*
X3656D01*
X3630Y-5669D02*
Y-5723D01*
M02*
