M48
;Layer_Color=9474304
;FILE_FORMAT=4:4
METRIC,LZ
;TYPE=PLATED
T1F00S00C0.4000
T2F00S00C0.9000
T3F00S00C1.0000
T4F00S00C1.2000
T5F00S00C3.3000
%
T01
X00128Y-00445
X0024Y-00386
X00221Y-00351
X0022125Y-0032375
X00213Y-0026
Y-00243
X00228
X00246
X0019225Y-0025175
X001925Y-00233
X00189997Y-00198002
X0017945Y-0020306
X0020205Y-00187348
X00207304Y-00168609
Y-00155802
X00221Y-00146
X00196434Y-00141166
X00175448Y-00136323
X00155Y-00136
X001275
X0013895Y-0024355
X00142Y-00262
X0029525Y-00300273
X0030625
X00333Y-0024775
Y-00237
X00319Y-00225
X00375464Y-0022
Y-002325
Y-00244464
X00104Y-00242
X000625Y-00203899
X00044708Y-00186164
X000385Y-0017
X0004755Y-0014505
X0007Y-00136
X001
X0003992Y-00274
X00021Y-0034
X00010239Y-00396756
X00055Y-00385
X00111Y-00444
X00091Y-0001487
X00037
X00332Y-00009
X00379
T02
X000737Y-004944
X000991
X001118Y-00469
X000864
X00061
X001245Y-004944
T03
X00289Y-00488
X00381Y-00489
X00346Y-00439
X00254Y-00438
T04
X00155Y-00037
X00205
X00255
T05
X00042Y-00558
X001436
M30
