%FSLAX42Y42*%
%MOMM*%
G71*
G01*
G75*
G04 Layer_Physical_Order=2*
G04 Layer_Color=16711680*
%ADD10R,1.50X0.30*%
%ADD11R,0.30X1.50*%
%ADD12O,0.30X1.50*%
%ADD13R,5.50X2.00*%
%ADD14R,1.68X1.52*%
%ADD15R,1.10X1.00*%
%ADD16R,1.00X1.10*%
%ADD17R,1.30X1.50*%
%ADD18R,1.50X1.30*%
%ADD19R,2.00X1.20*%
%ADD20R,5.60X5.60*%
%ADD21C,1.00*%
%ADD22C,0.25*%
%ADD23C,0.50*%
%ADD24C,2.00*%
%ADD25R,2.00X2.00*%
%ADD26C,1.20*%
%ADD27C,0.50*%
%ADD28C,3.30*%
%ADD29C,2.00*%
G36*
X4080Y-5830D02*
X20D01*
Y-20D01*
X4080D01*
Y-5830D01*
D02*
G37*
%LPC*%
G36*
X610Y-4609D02*
X589Y-4612D01*
X570Y-4620D01*
X553Y-4633D01*
X540Y-4650D01*
X532Y-4669D01*
X529Y-4690D01*
X532Y-4711D01*
X540Y-4730D01*
X553Y-4747D01*
X570Y-4760D01*
X589Y-4768D01*
X610Y-4771D01*
X631Y-4768D01*
X650Y-4760D01*
X667Y-4747D01*
X680Y-4730D01*
X688Y-4711D01*
X691Y-4690D01*
X688Y-4669D01*
X680Y-4650D01*
X667Y-4633D01*
X650Y-4620D01*
X631Y-4612D01*
X610Y-4609D01*
D02*
G37*
G36*
X948Y-4703D02*
X877D01*
Y-4774D01*
X886Y-4773D01*
X907Y-4765D01*
X925Y-4751D01*
X939Y-4733D01*
X947Y-4712D01*
X948Y-4703D01*
D02*
G37*
G36*
X851D02*
X780D01*
X781Y-4712D01*
X789Y-4733D01*
X803Y-4751D01*
X821Y-4765D01*
X842Y-4773D01*
X851Y-4774D01*
Y-4703D01*
D02*
G37*
G36*
X877Y-4606D02*
Y-4677D01*
X948D01*
X947Y-4668D01*
X939Y-4647D01*
X925Y-4629D01*
X907Y-4615D01*
X886Y-4607D01*
X877Y-4606D01*
D02*
G37*
G36*
X851D02*
X842Y-4607D01*
X821Y-4615D01*
X803Y-4629D01*
X789Y-4647D01*
X781Y-4668D01*
X780Y-4677D01*
X851D01*
Y-4606D01*
D02*
G37*
G36*
X1118Y-4609D02*
X1097Y-4612D01*
X1078Y-4620D01*
X1061Y-4633D01*
X1048Y-4650D01*
X1040Y-4669D01*
X1037Y-4690D01*
X1040Y-4711D01*
X1048Y-4730D01*
X1061Y-4747D01*
X1078Y-4760D01*
X1097Y-4768D01*
X1118Y-4771D01*
X1139Y-4768D01*
X1158Y-4760D01*
X1175Y-4747D01*
X1188Y-4730D01*
X1196Y-4711D01*
X1199Y-4690D01*
X1196Y-4669D01*
X1188Y-4650D01*
X1175Y-4633D01*
X1158Y-4620D01*
X1139Y-4612D01*
X1118Y-4609D01*
D02*
G37*
G36*
X3010Y-4760D02*
X2770D01*
Y-5000D01*
X3010D01*
Y-4760D01*
D02*
G37*
G36*
X2460Y-2309D02*
X2130D01*
X2099Y-2313D01*
X2069Y-2325D01*
X2044Y-2344D01*
X2025Y-2369D01*
X2013Y-2399D01*
X2009Y-2430D01*
Y-2810D01*
X2013Y-2841D01*
X2025Y-2871D01*
X2044Y-2896D01*
X2464Y-3316D01*
X2489Y-3335D01*
X2519Y-3347D01*
X2550Y-3351D01*
X3350D01*
X3689Y-3690D01*
Y-4380D01*
X2970Y-5099D01*
X1521D01*
Y-4620D01*
X1518Y-4602D01*
X1511Y-4585D01*
X1500Y-4570D01*
X1330Y-4400D01*
X1315Y-4389D01*
X1298Y-4382D01*
X1280Y-4379D01*
X1262Y-4382D01*
X1245Y-4389D01*
X1230Y-4400D01*
X1219Y-4415D01*
X1212Y-4432D01*
X1209Y-4450D01*
X1212Y-4468D01*
X1219Y-4485D01*
X1230Y-4500D01*
X1379Y-4649D01*
Y-5099D01*
X808D01*
Y-4983D01*
X815Y-4965D01*
X818Y-4944D01*
X815Y-4923D01*
X807Y-4904D01*
X794Y-4887D01*
X777Y-4874D01*
X758Y-4866D01*
X737Y-4863D01*
X716Y-4866D01*
X697Y-4874D01*
X680Y-4887D01*
X667Y-4904D01*
X659Y-4923D01*
X656Y-4944D01*
X659Y-4965D01*
X666Y-4983D01*
Y-5099D01*
X640D01*
X511Y-4970D01*
Y-3400D01*
Y-3300D01*
X900Y-2911D01*
X1400D01*
X1431Y-2907D01*
X1461Y-2895D01*
X1486Y-2876D01*
X1505Y-2851D01*
X1517Y-2821D01*
X1521Y-2790D01*
X1517Y-2759D01*
X1505Y-2729D01*
X1486Y-2704D01*
X1466Y-2689D01*
Y-2620D01*
X1462Y-2602D01*
X1452Y-2588D01*
X1438Y-2578D01*
X1420Y-2574D01*
X1402Y-2578D01*
X1388Y-2588D01*
X1378Y-2602D01*
X1374Y-2620D01*
Y-2669D01*
X1296D01*
Y-2594D01*
X1422Y-2468D01*
X1432Y-2453D01*
X1435Y-2436D01*
X1432Y-2418D01*
X1422Y-2403D01*
X1407Y-2393D01*
X1389Y-2390D01*
X1372Y-2393D01*
X1357Y-2403D01*
X1218Y-2543D01*
X1208Y-2557D01*
X1204Y-2575D01*
Y-2669D01*
X850D01*
X819Y-2673D01*
X789Y-2685D01*
X764Y-2704D01*
X304Y-3164D01*
X285Y-3189D01*
X273Y-3219D01*
X269Y-3250D01*
Y-3354D01*
X210D01*
X192Y-3358D01*
X178Y-3368D01*
X168Y-3382D01*
X164Y-3400D01*
X168Y-3418D01*
X178Y-3432D01*
X192Y-3442D01*
X210Y-3446D01*
X269D01*
Y-5020D01*
X273Y-5051D01*
X285Y-5081D01*
X304Y-5106D01*
X504Y-5306D01*
X529Y-5325D01*
X559Y-5337D01*
X590Y-5341D01*
X3020D01*
X3051Y-5337D01*
X3081Y-5325D01*
X3106Y-5306D01*
X3896Y-4516D01*
X3915Y-4491D01*
X3927Y-4461D01*
X3931Y-4430D01*
Y-3640D01*
X3927Y-3609D01*
X3915Y-3579D01*
X3896Y-3554D01*
X3486Y-3144D01*
X3461Y-3125D01*
X3431Y-3113D01*
X3400Y-3109D01*
X2600D01*
X2251Y-2760D01*
Y-2551D01*
X2460D01*
X2491Y-2547D01*
X2521Y-2535D01*
X2546Y-2516D01*
X2565Y-2491D01*
X2577Y-2461D01*
X2581Y-2430D01*
X2577Y-2399D01*
X2565Y-2369D01*
X2546Y-2344D01*
X2521Y-2325D01*
X2491Y-2313D01*
X2460Y-2309D01*
D02*
G37*
G36*
X1436Y-5394D02*
X1400Y-5398D01*
X1365Y-5408D01*
X1333Y-5425D01*
X1305Y-5449D01*
X1281Y-5477D01*
X1264Y-5509D01*
X1254Y-5544D01*
X1250Y-5580D01*
X1254Y-5616D01*
X1264Y-5651D01*
X1281Y-5683D01*
X1305Y-5711D01*
X1333Y-5735D01*
X1365Y-5752D01*
X1400Y-5762D01*
X1436Y-5766D01*
X1472Y-5762D01*
X1507Y-5752D01*
X1539Y-5735D01*
X1567Y-5711D01*
X1591Y-5683D01*
X1608Y-5651D01*
X1618Y-5616D01*
X1622Y-5580D01*
X1618Y-5544D01*
X1608Y-5509D01*
X1591Y-5477D01*
X1567Y-5449D01*
X1539Y-5425D01*
X1507Y-5408D01*
X1472Y-5398D01*
X1436Y-5394D01*
D02*
G37*
G36*
X420D02*
X384Y-5398D01*
X349Y-5408D01*
X317Y-5425D01*
X289Y-5449D01*
X265Y-5477D01*
X248Y-5509D01*
X238Y-5544D01*
X234Y-5580D01*
X238Y-5616D01*
X248Y-5651D01*
X265Y-5683D01*
X289Y-5711D01*
X317Y-5735D01*
X349Y-5752D01*
X384Y-5762D01*
X420Y-5766D01*
X456Y-5762D01*
X491Y-5752D01*
X523Y-5735D01*
X551Y-5711D01*
X575Y-5683D01*
X592Y-5651D01*
X602Y-5616D01*
X606Y-5580D01*
X602Y-5544D01*
X592Y-5509D01*
X575Y-5477D01*
X551Y-5449D01*
X523Y-5425D01*
X491Y-5408D01*
X456Y-5398D01*
X420Y-5394D01*
D02*
G37*
G36*
X3930Y-4770D02*
X3690D01*
Y-5010D01*
X3930D01*
Y-4770D01*
D02*
G37*
G36*
X1245Y-4863D02*
X1224Y-4866D01*
X1205Y-4874D01*
X1188Y-4887D01*
X1175Y-4904D01*
X1167Y-4923D01*
X1164Y-4944D01*
X1167Y-4965D01*
X1175Y-4984D01*
X1188Y-5001D01*
X1205Y-5014D01*
X1224Y-5022D01*
X1245Y-5025D01*
X1266Y-5022D01*
X1285Y-5014D01*
X1302Y-5001D01*
X1315Y-4984D01*
X1323Y-4965D01*
X1326Y-4944D01*
X1323Y-4923D01*
X1315Y-4904D01*
X1302Y-4887D01*
X1285Y-4874D01*
X1266Y-4866D01*
X1245Y-4863D01*
D02*
G37*
G36*
X991D02*
X970Y-4866D01*
X951Y-4874D01*
X934Y-4887D01*
X921Y-4904D01*
X913Y-4923D01*
X910Y-4944D01*
X913Y-4965D01*
X921Y-4984D01*
X934Y-5001D01*
X951Y-5014D01*
X970Y-5022D01*
X991Y-5025D01*
X1012Y-5022D01*
X1031Y-5014D01*
X1048Y-5001D01*
X1061Y-4984D01*
X1069Y-4965D01*
X1072Y-4944D01*
X1069Y-4923D01*
X1061Y-4904D01*
X1048Y-4887D01*
X1031Y-4874D01*
X1012Y-4866D01*
X991Y-4863D01*
D02*
G37*
G36*
X1675Y-383D02*
X1563D01*
Y-495D01*
X1583Y-492D01*
X1613Y-480D01*
X1639Y-459D01*
X1660Y-433D01*
X1672Y-403D01*
X1675Y-383D01*
D02*
G37*
G36*
X1537D02*
X1425D01*
X1428Y-403D01*
X1440Y-433D01*
X1461Y-459D01*
X1487Y-480D01*
X1517Y-492D01*
X1537Y-495D01*
Y-383D01*
D02*
G37*
G36*
X2553Y-4255D02*
Y-4367D01*
X2665D01*
X2662Y-4347D01*
X2650Y-4317D01*
X2629Y-4291D01*
X2603Y-4270D01*
X2573Y-4258D01*
X2553Y-4255D01*
D02*
G37*
G36*
X1760Y-47D02*
X195D01*
X182Y-49D01*
X171Y-56D01*
X79Y-149D01*
X72Y-160D01*
X69Y-172D01*
Y-3936D01*
X60Y-3950D01*
X57Y-3968D01*
X60Y-3985D01*
X70Y-4000D01*
X85Y-4010D01*
X102Y-4013D01*
X120Y-4010D01*
X135Y-4000D01*
X145Y-3985D01*
X148Y-3968D01*
X145Y-3950D01*
X136Y-3936D01*
Y-186D01*
X209Y-113D01*
X1746D01*
X1944Y-311D01*
X1933Y-339D01*
X1929Y-370D01*
X1933Y-401D01*
X1945Y-431D01*
X1964Y-456D01*
X1989Y-475D01*
X2019Y-487D01*
X2050Y-491D01*
X2081Y-487D01*
X2111Y-475D01*
X2136Y-456D01*
X2155Y-431D01*
X2167Y-401D01*
X2171Y-370D01*
X2167Y-339D01*
X2155Y-309D01*
X2136Y-284D01*
X2111Y-265D01*
X2081Y-253D01*
X2050Y-249D01*
X2019Y-253D01*
X1991Y-264D01*
X1784Y-56D01*
X1773Y-49D01*
X1760Y-47D01*
D02*
G37*
G36*
X1563Y-245D02*
Y-357D01*
X1675D01*
X1672Y-337D01*
X1660Y-307D01*
X1639Y-281D01*
X1613Y-260D01*
X1583Y-248D01*
X1563Y-245D01*
D02*
G37*
G36*
X1537D02*
X1517Y-248D01*
X1487Y-260D01*
X1461Y-281D01*
X1440Y-307D01*
X1428Y-337D01*
X1425Y-357D01*
X1537D01*
Y-245D01*
D02*
G37*
G36*
X2550Y-249D02*
X2519Y-253D01*
X2489Y-265D01*
X2464Y-284D01*
X2445Y-309D01*
X2433Y-339D01*
X2429Y-370D01*
X2433Y-401D01*
X2444Y-429D01*
X2186Y-686D01*
X2179Y-697D01*
X2177Y-710D01*
Y-1429D01*
X2168Y-1442D01*
X2164Y-1460D01*
X2168Y-1478D01*
X2178Y-1492D01*
X2192Y-1502D01*
X2210Y-1506D01*
X2228Y-1502D01*
X2242Y-1492D01*
X2252Y-1478D01*
X2256Y-1460D01*
X2252Y-1442D01*
X2243Y-1429D01*
Y-724D01*
X2491Y-476D01*
X2519Y-487D01*
X2550Y-491D01*
X2581Y-487D01*
X2611Y-475D01*
X2636Y-456D01*
X2655Y-431D01*
X2667Y-401D01*
X2671Y-370D01*
X2667Y-339D01*
X2655Y-309D01*
X2636Y-284D01*
X2611Y-265D01*
X2581Y-253D01*
X2550Y-249D01*
D02*
G37*
G36*
X2527Y-4393D02*
X2415D01*
X2418Y-4413D01*
X2430Y-4443D01*
X2451Y-4469D01*
X2477Y-4490D01*
X2507Y-4502D01*
X2527Y-4505D01*
Y-4393D01*
D02*
G37*
G36*
X3585Y-4403D02*
X3473D01*
Y-4515D01*
X3493Y-4512D01*
X3523Y-4500D01*
X3549Y-4479D01*
X3570Y-4453D01*
X3582Y-4423D01*
X3585Y-4403D01*
D02*
G37*
G36*
X3447D02*
X3335D01*
X3338Y-4423D01*
X3350Y-4453D01*
X3371Y-4479D01*
X3397Y-4500D01*
X3427Y-4512D01*
X3447Y-4515D01*
Y-4403D01*
D02*
G37*
G36*
X2665Y-4393D02*
X2553D01*
Y-4505D01*
X2573Y-4502D01*
X2603Y-4490D01*
X2629Y-4469D01*
X2650Y-4443D01*
X2662Y-4413D01*
X2665Y-4393D01*
D02*
G37*
G36*
X2527Y-4255D02*
X2507Y-4258D01*
X2477Y-4270D01*
X2451Y-4291D01*
X2430Y-4317D01*
X2418Y-4347D01*
X2415Y-4367D01*
X2527D01*
Y-4255D01*
D02*
G37*
G36*
X3473Y-4265D02*
Y-4377D01*
X3585D01*
X3582Y-4357D01*
X3570Y-4327D01*
X3549Y-4301D01*
X3523Y-4280D01*
X3493Y-4268D01*
X3473Y-4265D01*
D02*
G37*
G36*
X3447D02*
X3427Y-4268D01*
X3397Y-4280D01*
X3371Y-4301D01*
X3350Y-4327D01*
X3338Y-4357D01*
X3335Y-4377D01*
X3447D01*
Y-4265D01*
D02*
G37*
%LPD*%
D21*
X1280Y-4450D02*
X1450Y-4620D01*
X737Y-5220D02*
Y-4944D01*
X1450Y-5220D02*
Y-4620D01*
D22*
X1380Y-2770D02*
X1400Y-2790D01*
X2210Y-710D02*
X2550Y-370D01*
X2210Y-1460D02*
Y-710D01*
X102Y-3968D02*
Y-172D01*
X195Y-80D01*
X1760D01*
X2050Y-370D01*
D23*
X1250Y-2575D02*
X1389Y-2436D01*
X1250Y-2790D02*
Y-2575D01*
X1420Y-2730D02*
Y-2620D01*
X1380Y-2770D02*
X1420Y-2730D01*
X210Y-3400D02*
X390D01*
D24*
X2540Y-4380D02*
D03*
X3460Y-4390D02*
D03*
X1550Y-370D02*
D03*
X2050D02*
D03*
X2550D02*
D03*
D25*
X2890Y-4880D02*
D03*
X3810Y-4890D02*
D03*
D26*
X610Y-4690D02*
D03*
X737Y-4944D02*
D03*
X991D02*
D03*
X864Y-4690D02*
D03*
X1118D02*
D03*
X1245Y-4944D02*
D03*
D27*
X447Y-1862D02*
D03*
X2021Y-1873D02*
D03*
X1900Y-1980D02*
D03*
X1794Y-2031D02*
D03*
X2073Y-1686D02*
D03*
Y-1558D02*
D03*
X1964Y-1412D02*
D03*
X1754Y-1363D02*
D03*
X3330Y-2370D02*
D03*
X3190Y-2250D02*
D03*
X1925Y-2330D02*
D03*
X1923Y-2517D02*
D03*
X2130Y-2430D02*
D03*
X3755Y-2200D02*
D03*
Y-2325D02*
D03*
X700Y-1360D02*
D03*
X476Y-1451D02*
D03*
X385Y-1700D02*
D03*
X625Y-2039D02*
D03*
X1000Y-1360D02*
D03*
X1275D02*
D03*
X1550D02*
D03*
X1389Y-2436D02*
D03*
X1420Y-2620D02*
D03*
X1110Y-4440D02*
D03*
X370Y-149D02*
D03*
X910D02*
D03*
X3790Y-90D02*
D03*
X3320D02*
D03*
X1040Y-2420D02*
D03*
X3330Y-2477D02*
D03*
X3755Y-2445D02*
D03*
X2210Y-3510D02*
D03*
X2400Y-3860D02*
D03*
X399Y-2740D02*
D03*
X550Y-3850D02*
D03*
X2210Y-1460D02*
D03*
X1280Y-4450D02*
D03*
X2280Y-2430D02*
D03*
X2460D02*
D03*
X2130Y-2600D02*
D03*
X2952Y-3003D02*
D03*
X3062D02*
D03*
X2212Y-3238D02*
D03*
X210Y-3400D02*
D03*
X102Y-3968D02*
D03*
D28*
X1436Y-5580D02*
D03*
X420D02*
D03*
D29*
X2130Y-2810D02*
Y-2430D01*
X2280D01*
X1250Y-2790D02*
X1400D01*
X850D02*
X1250D01*
X390Y-3400D02*
Y-3250D01*
X850Y-2790D01*
X2130Y-2810D02*
X2550Y-3230D01*
X3400D02*
X3810Y-3640D01*
X2550Y-3230D02*
X3400D01*
X2280Y-2430D02*
X2460D01*
X737Y-5220D02*
X1450D01*
X390Y-5020D02*
Y-3400D01*
X590Y-5220D02*
X737D01*
X390Y-5020D02*
X590Y-5220D01*
X1450D02*
X3020D01*
X3810Y-4430D01*
Y-3640D01*
M02*
