%FSLAX42Y42*%
%MOMM*%
G71*
G01*
G75*
G04 Layer_Physical_Order=1*
G04 Layer_Color=255*
%ADD10R,1.50X0.30*%
%ADD11R,0.30X1.50*%
%ADD12O,0.30X1.50*%
%ADD13R,5.50X2.00*%
%ADD14R,1.68X1.52*%
%ADD15R,1.10X1.00*%
%ADD16R,1.00X1.10*%
%ADD17R,1.30X1.50*%
%ADD18R,1.50X1.30*%
%ADD19R,2.00X1.20*%
%ADD20R,5.60X5.60*%
%ADD21C,1.00*%
%ADD22C,0.25*%
%ADD23C,0.50*%
%ADD24C,2.00*%
%ADD25R,2.00X2.00*%
%ADD26C,1.20*%
%ADD27C,0.50*%
%ADD28C,3.30*%
D10*
X655Y-3735D02*
D03*
Y-3685D02*
D03*
Y-3635D02*
D03*
Y-3585D02*
D03*
Y-3535D02*
D03*
Y-3485D02*
D03*
Y-3435D02*
D03*
Y-3385D02*
D03*
Y-3335D02*
D03*
Y-3285D02*
D03*
Y-3235D02*
D03*
Y-3185D02*
D03*
Y-3135D02*
D03*
Y-3085D02*
D03*
Y-3035D02*
D03*
Y-2985D02*
D03*
X1795D02*
D03*
Y-3035D02*
D03*
Y-3085D02*
D03*
Y-3135D02*
D03*
Y-3185D02*
D03*
Y-3235D02*
D03*
Y-3285D02*
D03*
Y-3335D02*
D03*
Y-3385D02*
D03*
Y-3435D02*
D03*
Y-3485D02*
D03*
Y-3535D02*
D03*
Y-3585D02*
D03*
Y-3635D02*
D03*
Y-3685D02*
D03*
Y-3735D02*
D03*
D11*
X850Y-2790D02*
D03*
X900D02*
D03*
X950D02*
D03*
X1000D02*
D03*
X1050D02*
D03*
X1100D02*
D03*
X1150D02*
D03*
X1200D02*
D03*
X1250D02*
D03*
X1300D02*
D03*
X1350D02*
D03*
X1400D02*
D03*
X1450D02*
D03*
X1500D02*
D03*
X1550D02*
D03*
X1600D02*
D03*
Y-3930D02*
D03*
X1550D02*
D03*
X1500D02*
D03*
X1450D02*
D03*
X1400D02*
D03*
X1350D02*
D03*
X1300D02*
D03*
X1250D02*
D03*
X1200D02*
D03*
X1150D02*
D03*
X1100D02*
D03*
X1050D02*
D03*
X1000D02*
D03*
X950D02*
D03*
X900D02*
D03*
D12*
X850D02*
D03*
D13*
X1700Y-1675D02*
D03*
X750D02*
D03*
D14*
X2770Y-3739D02*
D03*
Y-3470D02*
D03*
X3760Y-3749D02*
D03*
Y-3480D02*
D03*
D15*
X2915Y-2790D02*
D03*
X3085D02*
D03*
X725Y-4260D02*
D03*
X895D02*
D03*
X1020Y-2160D02*
D03*
X850D02*
D03*
X1450Y-2160D02*
D03*
X1280D02*
D03*
X1727Y-2517D02*
D03*
X1557D02*
D03*
X1727Y-2328D02*
D03*
X1557D02*
D03*
X1110Y-4260D02*
D03*
X1280D02*
D03*
D16*
X2400Y-2900D02*
D03*
Y-3070D02*
D03*
X370Y-905D02*
D03*
Y-735D02*
D03*
X910Y-905D02*
D03*
Y-735D02*
D03*
X3320Y-905D02*
D03*
Y-735D02*
D03*
X3790Y-905D02*
D03*
Y-735D02*
D03*
X2739Y-2966D02*
D03*
Y-2795D02*
D03*
X3269Y-2966D02*
D03*
Y-2796D02*
D03*
X399Y-3115D02*
D03*
Y-2945D02*
D03*
X2075Y-3515D02*
D03*
Y-3685D02*
D03*
X400Y-3570D02*
D03*
Y-3400D02*
D03*
X2075Y-3235D02*
D03*
Y-3065D02*
D03*
D17*
X3010Y-2430D02*
D03*
X2820D02*
D03*
D18*
X3755Y-2023D02*
D03*
Y-1833D02*
D03*
X3250Y-3660D02*
D03*
Y-3470D02*
D03*
X210Y-2925D02*
D03*
Y-3115D02*
D03*
X2400Y-3650D02*
D03*
Y-3460D02*
D03*
X370Y-295D02*
D03*
Y-485D02*
D03*
X910Y-295D02*
D03*
Y-485D02*
D03*
X3320Y-295D02*
D03*
Y-485D02*
D03*
X3790Y-295D02*
D03*
Y-485D02*
D03*
D19*
X3330Y-2055D02*
D03*
Y-1605D02*
D03*
D20*
X2610Y-1830D02*
D03*
D21*
X2074Y-1821D02*
Y-1530D01*
X1904Y-1360D02*
X2074Y-1530D01*
X1550Y-1360D02*
X1904D01*
X1910Y-1985D02*
X2074Y-1821D01*
X1839Y-1985D02*
X1910D01*
X1664Y-2160D02*
X1839Y-1985D01*
X1450Y-2160D02*
X1664D01*
X3330Y-2110D02*
X3417Y-2023D01*
X3010Y-2430D02*
X3330Y-2110D01*
X2130Y-2430D02*
X2280D01*
X3330Y-2477D02*
Y-2110D01*
X3755Y-2200D02*
Y-2023D01*
Y-2325D02*
Y-2200D01*
Y-2445D02*
Y-2325D01*
X700Y-1360D02*
X1000D01*
X566D02*
X700D01*
X476Y-1451D02*
X566Y-1360D01*
X385Y-1541D02*
X476Y-1451D01*
X385Y-1700D02*
Y-1541D01*
Y-1799D02*
Y-1700D01*
X486Y-1900D02*
X625Y-2039D01*
X385Y-1799D02*
X486Y-1900D01*
X625Y-2039D02*
X746Y-2160D01*
X1000Y-1360D02*
X1275D01*
X1550D01*
X3330Y-2110D02*
Y-2055D01*
X746Y-2160D02*
X850D01*
X3460Y-4390D02*
Y-4250D01*
X3250Y-4040D02*
X3460Y-4250D01*
X3250Y-4040D02*
Y-3660D01*
X3417Y-2023D02*
X3755D01*
X2280Y-2430D02*
X2460D01*
X2820D01*
Y-2479D02*
Y-2430D01*
Y-2040D01*
X2890Y-4880D02*
Y-4110D01*
X2770Y-3990D02*
X2890Y-4110D01*
X2770Y-3990D02*
Y-3739D01*
X3760Y-4050D02*
Y-3749D01*
Y-4050D02*
X3810Y-4100D01*
X3269Y-2796D02*
Y-2741D01*
X3148Y-2620D02*
X3269Y-2741D01*
X2960Y-2620D02*
X3148D01*
X2820Y-2479D02*
X2960Y-2619D01*
Y-2620D02*
Y-2619D01*
X2610Y-1830D02*
X2820Y-2040D01*
X3755Y-1833D02*
Y-1690D01*
X3670Y-1605D02*
X3755Y-1690D01*
X3330Y-1605D02*
X3670D01*
X3845Y-1833D02*
X3950Y-1938D01*
Y-2770D02*
Y-1938D01*
X3250Y-3470D02*
X3950Y-2770D01*
X3755Y-1833D02*
X3845D01*
X2770Y-3470D02*
X3250D01*
X3810Y-4890D02*
Y-4100D01*
X3260Y-3480D02*
X3760D01*
D22*
X532Y-1277D02*
X3418D01*
X513Y-1232D02*
X2993D01*
X302Y-1507D02*
X532Y-1277D01*
X257Y-1488D02*
X513Y-1232D01*
X2047Y-2178D02*
X2214Y-2012D01*
X2211Y-1461D02*
X2214Y-2012D01*
X2210Y-1460D02*
X2211Y-1461D01*
X2047Y-2464D02*
Y-2178D01*
X1500Y-2580D02*
X1562Y-2517D01*
X1465Y-2523D02*
X1555D01*
X1420Y-2567D02*
X1465Y-2523D01*
X1420Y-2620D02*
Y-2567D01*
X1733Y-2330D02*
X1925D01*
X1727Y-2517D02*
X1923D01*
X2270Y-3635D02*
X2270Y-3635D01*
X2205Y-3700D02*
X2270Y-3635D01*
X2090Y-3700D02*
X2205D01*
X2270Y-2870D02*
X2344Y-2795D01*
X2270Y-3213D02*
Y-2870D01*
Y-3213D02*
X2270Y-3214D01*
X2739Y-2796D02*
Y-2795D01*
X2739D01*
X2344D02*
X2739D01*
X2270Y-3635D02*
Y-3214D01*
X2739Y-2795D02*
Y-2649D01*
X400Y-3387D02*
X653D01*
X2200Y-1460D02*
X2210Y-1450D01*
X2047Y-2464D02*
X2096Y-2513D01*
X2603D01*
X2739Y-2649D01*
X1110Y-4440D02*
X1110Y-4440D01*
Y-4260D01*
X370Y-295D02*
Y-149D01*
X910Y-295D02*
Y-149D01*
X3790Y-90D02*
X3790Y-90D01*
X3790Y-295D02*
Y-90D01*
X3320Y-90D02*
X3320Y-90D01*
Y-295D02*
Y-90D01*
X1040Y-2420D02*
X1200Y-2580D01*
Y-2790D02*
Y-2580D01*
X3091Y-2966D02*
X3269D01*
X2739Y-2965D02*
X2915D01*
X2110Y-3510D02*
X2210D01*
X2090Y-3530D02*
X2110Y-3510D01*
X2400Y-3860D02*
X2400Y-3860D01*
Y-3650D01*
X399Y-2945D02*
Y-2740D01*
X400Y-3700D02*
X550Y-3850D01*
X400Y-3700D02*
Y-3570D01*
X1250Y-4035D02*
Y-3930D01*
X1919Y-3335D02*
X2019Y-3235D01*
X1795Y-3335D02*
X1919D01*
X2090Y-3530D02*
X2090Y-3530D01*
X1985Y-3530D02*
X2090D01*
X1930Y-3585D02*
X1985Y-3530D01*
X1795Y-3585D02*
X1930D01*
X1110Y-4260D02*
Y-4175D01*
X1250Y-4035D01*
X389Y-2935D02*
X399Y-2945D01*
X169Y-2935D02*
X389D01*
X1110Y-4260D02*
X1110Y-4260D01*
X1350Y-2475D02*
X1389Y-2436D01*
X1350Y-2790D02*
Y-2475D01*
X1389Y-2436D02*
X1495Y-2330D01*
X1300Y-2790D02*
Y-2180D01*
X1250Y-2790D02*
Y-2390D01*
X1020Y-2160D02*
X1250Y-2390D01*
X2210Y-1460D02*
Y-1450D01*
X2200Y-1460D02*
X2210D01*
X850Y-3690D02*
X1420D01*
X1500Y-3770D01*
Y-3930D02*
Y-3770D01*
X1250Y-2790D02*
X1250Y-2790D01*
X1500Y-2790D02*
Y-2580D01*
X1300Y-4240D02*
Y-3930D01*
X1600Y-4396D02*
Y-3930D01*
X1550Y-4381D02*
Y-3930D01*
X1280Y-4450D02*
Y-4260D01*
X1280Y-2160D02*
Y-2070D01*
X1680Y-1670D01*
X1020Y-2160D02*
Y-1960D01*
X730Y-1670D02*
X1020Y-1960D01*
X910Y-485D02*
X910Y-485D01*
X910Y-735D02*
Y-485D01*
X370Y-735D02*
Y-485D01*
X538Y-3087D02*
X655D01*
X482Y-3032D02*
Y-2212D01*
X166Y-1896D02*
X482Y-2212D01*
X166Y-1896D02*
Y-1109D01*
X527Y-3013D02*
Y-2187D01*
X212Y-1871D02*
X527Y-2187D01*
X212Y-1871D02*
Y-1469D01*
X573Y-2981D02*
Y-2168D01*
X257Y-1852D02*
X573Y-2168D01*
X257Y-1852D02*
Y-1488D01*
X577Y-2985D02*
X655D01*
X573Y-2981D02*
X577Y-2985D01*
X527Y-3013D02*
X547Y-3033D01*
X653D01*
X655Y-3087D02*
Y-3085D01*
X482Y-3032D02*
X538Y-3087D01*
X166Y-1109D02*
X370Y-905D01*
X653Y-3033D02*
X655Y-3035D01*
X212Y-1469D02*
X776Y-905D01*
X910D01*
X2993Y-1232D02*
X3320Y-905D01*
X950Y-2790D02*
X952Y-2788D01*
Y-2483D01*
X302Y-1833D02*
X952Y-2483D01*
X302Y-1833D02*
Y-1507D01*
X3418Y-1277D02*
X3790Y-905D01*
X2610Y-3130D02*
Y-3005D01*
X2505Y-2900D02*
X2610Y-3005D01*
X2400Y-2900D02*
X2505D01*
X2770Y-3470D02*
Y-3290D01*
X2610Y-3130D02*
X2770Y-3290D01*
X3790Y-735D02*
Y-485D01*
X3320Y-735D02*
Y-485D01*
X3085Y-2790D02*
X3264D01*
X2739Y-2796D02*
X2910D01*
X2915Y-2790D01*
X2770Y-3739D02*
X2770Y-3739D01*
X2400Y-3460D02*
X2400Y-3460D01*
Y-3070D01*
X2080Y-3710D02*
X2090Y-3700D01*
X2000Y-3710D02*
X2080D01*
X1925Y-3635D02*
X2000Y-3710D01*
X1795Y-3635D02*
X1925D01*
X1905Y-3285D02*
X1960Y-3230D01*
X1795Y-3285D02*
X1905D01*
X1960Y-3230D02*
Y-3145D01*
X2040Y-3065D01*
X2090D01*
X1300Y-2790D02*
X1300Y-2790D01*
X1280Y-2160D02*
X1300Y-2180D01*
X389Y-3125D02*
X399Y-3115D01*
X169Y-3125D02*
X389D01*
X510Y-3335D02*
X655D01*
X399Y-3224D02*
X510Y-3335D01*
X399Y-3224D02*
Y-3115D01*
X895Y-4260D02*
X906D01*
X1150Y-3930D02*
X1152Y-3932D01*
Y-4014D02*
Y-3932D01*
X906Y-4260D02*
X1152Y-4014D01*
X1280Y-4260D02*
X1300Y-4240D01*
X1241Y-4690D02*
X1550Y-4381D01*
X1052Y-4944D02*
X1600Y-4396D01*
X653Y-3387D02*
X655Y-3385D01*
X400Y-3400D02*
Y-3387D01*
X676Y-4944D02*
X737D01*
X477Y-4745D02*
X676Y-4944D01*
X477Y-4745D02*
Y-4508D01*
X725Y-4260D01*
X895Y-4260D02*
X895Y-4260D01*
X895Y-4405D02*
Y-4260D01*
X610Y-4690D02*
X895Y-4405D01*
X991Y-4944D02*
X1052D01*
X1118Y-4690D02*
X1241D01*
X610D02*
Y-4635D01*
X2090Y-3065D02*
Y-2940D01*
X2130Y-2900D01*
Y-2600D01*
X2915Y-2965D02*
X2952Y-3003D01*
X3062Y-2994D02*
X3091Y-2966D01*
X3062Y-3003D02*
Y-2994D01*
X2210Y-3235D02*
X2212Y-3238D01*
X2019Y-3235D02*
X2210D01*
X210Y-3400D02*
X400D01*
X102Y-3968D02*
X572D01*
X850Y-3690D01*
D23*
X3250Y-3470D02*
X3260Y-3480D01*
D24*
X2540Y-4380D02*
D03*
X3460Y-4390D02*
D03*
X1550Y-370D02*
D03*
X2050D02*
D03*
X2550D02*
D03*
D25*
X2890Y-4880D02*
D03*
X3810Y-4890D02*
D03*
D26*
X610Y-4690D02*
D03*
X737Y-4944D02*
D03*
X991D02*
D03*
X864Y-4690D02*
D03*
X1118D02*
D03*
X1245Y-4944D02*
D03*
D27*
X447Y-1862D02*
D03*
X2021Y-1873D02*
D03*
X1900Y-1980D02*
D03*
X1794Y-2031D02*
D03*
X2073Y-1686D02*
D03*
Y-1558D02*
D03*
X1964Y-1412D02*
D03*
X1754Y-1363D02*
D03*
X3330Y-2370D02*
D03*
X3190Y-2250D02*
D03*
X1925Y-2330D02*
D03*
X1923Y-2517D02*
D03*
X2130Y-2430D02*
D03*
X3755Y-2200D02*
D03*
Y-2325D02*
D03*
X700Y-1360D02*
D03*
X476Y-1451D02*
D03*
X385Y-1700D02*
D03*
X625Y-2039D02*
D03*
X1000Y-1360D02*
D03*
X1275D02*
D03*
X1550D02*
D03*
X1389Y-2436D02*
D03*
X1420Y-2620D02*
D03*
X1110Y-4440D02*
D03*
X370Y-149D02*
D03*
X910D02*
D03*
X3790Y-90D02*
D03*
X3320D02*
D03*
X1040Y-2420D02*
D03*
X3330Y-2477D02*
D03*
X3755Y-2445D02*
D03*
X2210Y-3510D02*
D03*
X2400Y-3860D02*
D03*
X399Y-2740D02*
D03*
X550Y-3850D02*
D03*
X2210Y-1460D02*
D03*
X1280Y-4450D02*
D03*
X2280Y-2430D02*
D03*
X2460D02*
D03*
X2130Y-2600D02*
D03*
X2952Y-3003D02*
D03*
X3062D02*
D03*
X2212Y-3238D02*
D03*
X210Y-3400D02*
D03*
X102Y-3968D02*
D03*
D28*
X1436Y-5580D02*
D03*
X420D02*
D03*
M02*
