%FSLAX44Y44*%
%MOMM*%
G71*
G01*
G75*
%ADD10R,1.1000X1.0000*%
%ADD11R,1.2500X1.1000*%
%ADD12R,1.0000X1.1000*%
%ADD13R,0.6000X0.7000*%
%ADD14O,0.6000X2.0000*%
%ADD15R,0.6000X2.0000*%
%ADD16R,1.6800X1.5200*%
%ADD17R,0.7000X0.6000*%
%ADD18O,0.5100X1.2700*%
%ADD19R,0.5100X1.2700*%
%ADD20R,1.7800X3.5600*%
%ADD21R,1.1000X1.1000*%
%ADD22R,0.6000X1.1000*%
%ADD23O,0.6000X1.1000*%
%ADD24C,0.5000*%
%ADD25C,0.2540*%
%ADD26C,0.2000*%
%ADD27C,0.3000*%
%ADD28C,0.6000*%
%ADD29C,1.0000*%
%ADD30C,1.5000*%
%ADD31C,2.0000*%
%ADD32C,2.6000*%
%ADD33R,2.0000X2.0000*%
%ADD34C,2.0000*%
%ADD35C,1.1000*%
%ADD36C,1.5240*%
%ADD37R,2.0000X2.0000*%
%ADD38C,4.5000*%
%ADD39C,5.0000*%
%ADD40C,0.4000*%
%ADD41C,0.7000*%
%ADD42C,1.0000*%
%ADD43C,0.1000*%
D25*
X930613Y-19983D02*
Y78017D01*
X785613Y-19983D02*
X930613D01*
X785613D02*
Y-3483D01*
Y61517D02*
Y78017D01*
X793613D01*
X853113D02*
X930613D01*
X819612Y212534D02*
Y227769D01*
X827230D01*
X829769Y225230D01*
Y220152D01*
X827230Y217613D01*
X819612D01*
X824690D02*
X829769Y212534D01*
X834847D02*
X839926D01*
X837386D01*
Y227769D01*
X834847Y225230D01*
X857700Y212534D02*
X847543D01*
X857700Y222691D01*
Y225230D01*
X855161Y227769D01*
X850082D01*
X847543Y225230D01*
X867110Y165544D02*
Y180779D01*
X874728D01*
X877267Y178240D01*
Y173162D01*
X874728Y170623D01*
X867110D01*
X872188D02*
X877267Y165544D01*
X892502D02*
X882345D01*
X892502Y175701D01*
Y178240D01*
X889963Y180779D01*
X884884D01*
X882345Y178240D01*
X868126Y227007D02*
Y211772D01*
X875744D01*
X878283Y214312D01*
Y224468D01*
X875744Y227007D01*
X868126D01*
X883361Y211772D02*
X888439D01*
X885900D01*
Y227007D01*
X883361Y224468D01*
X830277Y178494D02*
X827738Y181033D01*
X822659D01*
X820120Y178494D01*
Y168337D01*
X822659Y165798D01*
X827738D01*
X830277Y168337D01*
X845512Y181033D02*
X835355D01*
Y173416D01*
X840434Y175955D01*
X842973D01*
X845512Y173416D01*
Y168337D01*
X842973Y165798D01*
X837894D01*
X835355Y168337D01*
X713918Y275512D02*
Y290747D01*
X721535D01*
X724075Y288208D01*
Y283129D01*
X721535Y280590D01*
X713918D01*
X718996D02*
X724075Y275512D01*
X729153Y288208D02*
X731692Y290747D01*
X736771D01*
X739310Y288208D01*
Y285668D01*
X736771Y283129D01*
X734231D01*
X736771D01*
X739310Y280590D01*
Y278051D01*
X736771Y275512D01*
X731692D01*
X729153Y278051D01*
X713918Y225220D02*
Y240455D01*
X721535D01*
X724075Y237916D01*
Y232837D01*
X721535Y230298D01*
X713918D01*
X718996D02*
X724075Y225220D01*
X729153D02*
X734231D01*
X731692D01*
Y240455D01*
X729153Y237916D01*
X749466Y225220D02*
Y240455D01*
X741849Y232837D01*
X752006D01*
X128524Y562097D02*
Y549401D01*
X131063Y546862D01*
X136142D01*
X138681Y549401D01*
Y562097D01*
X153916D02*
X148837Y559558D01*
X143759Y554479D01*
Y549401D01*
X146298Y546862D01*
X151377D01*
X153916Y549401D01*
Y551940D01*
X151377Y554479D01*
X143759D01*
X634765Y842500D02*
X647461D01*
X650000Y845039D01*
Y850117D01*
X647461Y852657D01*
X634765D01*
Y867892D02*
Y857735D01*
X642383D01*
X639843Y862813D01*
Y865353D01*
X642383Y867892D01*
X647461D01*
X650000Y865353D01*
Y860274D01*
X647461Y857735D01*
X623416Y280240D02*
X636112D01*
X638651Y282779D01*
Y287857D01*
X636112Y290397D01*
X623416D01*
X638651Y303092D02*
X623416D01*
X631034Y295475D01*
Y305632D01*
X102875Y884670D02*
X115571D01*
X118110Y887209D01*
Y892288D01*
X115571Y894827D01*
X102875D01*
X105414Y899905D02*
X102875Y902444D01*
Y907523D01*
X105414Y910062D01*
X107953D01*
X110492Y907523D01*
Y904983D01*
Y907523D01*
X113032Y910062D01*
X115571D01*
X118110Y907523D01*
Y902444D01*
X115571Y899905D01*
X128524Y461767D02*
Y449071D01*
X131063Y446532D01*
X136142D01*
X138681Y449071D01*
Y461767D01*
X153916Y446532D02*
X143759D01*
X153916Y456689D01*
Y459228D01*
X151377Y461767D01*
X146298D01*
X143759Y459228D01*
X38105Y628650D02*
X50801D01*
X53340Y631189D01*
Y636268D01*
X50801Y638807D01*
X38105D01*
X53340Y643885D02*
Y648963D01*
Y646424D01*
X38105D01*
X40644Y643885D01*
X500562Y824654D02*
Y839889D01*
X508179D01*
X510718Y837350D01*
Y832271D01*
X508179Y829732D01*
X500562D01*
X505640D02*
X510718Y824654D01*
X515797Y827193D02*
X518336Y824654D01*
X523414D01*
X525953Y827193D01*
Y837350D01*
X523414Y839889D01*
X518336D01*
X515797Y837350D01*
Y834810D01*
X518336Y832271D01*
X525953D01*
X223032Y765300D02*
Y780535D01*
X230649D01*
X233189Y777996D01*
Y772918D01*
X230649Y770378D01*
X223032D01*
X228110D02*
X233189Y765300D01*
X238267Y777996D02*
X240806Y780535D01*
X245884D01*
X248424Y777996D01*
Y775457D01*
X245884Y772918D01*
X248424Y770378D01*
Y767839D01*
X245884Y765300D01*
X240806D01*
X238267Y767839D01*
Y770378D01*
X240806Y772918D01*
X238267Y775457D01*
Y777996D01*
X240806Y772918D02*
X245884D01*
X222999Y827582D02*
Y842817D01*
X230616D01*
X233155Y840278D01*
Y835200D01*
X230616Y832661D01*
X222999D01*
X228077D02*
X233155Y827582D01*
X238234Y842817D02*
X248390D01*
Y840278D01*
X238234Y830122D01*
Y827582D01*
X256911Y764812D02*
Y780047D01*
X264528D01*
X267067Y777508D01*
Y772430D01*
X264528Y769890D01*
X256911D01*
X261989D02*
X267067Y764812D01*
X282302Y780047D02*
X277224Y777508D01*
X272146Y772430D01*
Y767351D01*
X274685Y764812D01*
X279763D01*
X282302Y767351D01*
Y769890D01*
X279763Y772430D01*
X272146D01*
X256911Y827582D02*
Y842817D01*
X264528D01*
X267067Y840278D01*
Y835200D01*
X264528Y832661D01*
X256911D01*
X261989D02*
X267067Y827582D01*
X282302Y842817D02*
X272146D01*
Y835200D01*
X277224Y837739D01*
X279763D01*
X282302Y835200D01*
Y830122D01*
X279763Y827582D01*
X274685D01*
X272146Y830122D01*
X91440Y306324D02*
Y321559D01*
X99058D01*
X101597Y319020D01*
Y313941D01*
X99058Y311402D01*
X91440D01*
X96518D02*
X101597Y306324D01*
X106675D02*
X111753D01*
X109214D01*
Y321559D01*
X106675Y319020D01*
X549800Y829299D02*
Y839456D01*
X547261Y841995D01*
X542183D01*
X539644Y839456D01*
Y829299D01*
X542183Y826760D01*
X547261D01*
X544722Y831838D02*
X549800Y826760D01*
X547261D02*
X549800Y829299D01*
X554879Y839456D02*
X557418Y841995D01*
X562496D01*
X565036Y839456D01*
Y836916D01*
X562496Y834377D01*
X559957D01*
X562496D01*
X565036Y831838D01*
Y829299D01*
X562496Y826760D01*
X557418D01*
X554879Y829299D01*
X145519Y837074D02*
Y847230D01*
X142980Y849769D01*
X137902D01*
X135363Y847230D01*
Y837074D01*
X137902Y834534D01*
X142980D01*
X140441Y839613D02*
X145519Y834534D01*
X142980D02*
X145519Y837074D01*
X160754Y834534D02*
X150598D01*
X160754Y844691D01*
Y847230D01*
X158215Y849769D01*
X153137D01*
X150598Y847230D01*
X189201Y837234D02*
Y847390D01*
X186662Y849929D01*
X181584D01*
X179044Y847390D01*
Y837234D01*
X181584Y834694D01*
X186662D01*
X184123Y839773D02*
X189201Y834694D01*
X186662D02*
X189201Y837234D01*
X194280Y834694D02*
X199358D01*
X196819D01*
Y849929D01*
X194280Y847390D01*
X770085Y109027D02*
Y124262D01*
X777703D01*
X780242Y121723D01*
Y116645D01*
X777703Y114105D01*
X770085D01*
X785320Y109027D02*
X790399D01*
X787859D01*
Y124262D01*
X785320Y121723D01*
X488366Y374059D02*
Y358824D01*
X498523D01*
X503601D02*
X508679D01*
X506140D01*
Y374059D01*
X503601Y371520D01*
X865606Y706405D02*
X868145D01*
X870684Y708944D01*
Y721640D01*
X880841Y724180D02*
X883380Y726719D01*
X888459D01*
X890998Y724180D01*
Y721640D01*
X888459Y719101D01*
X885919D01*
X888459D01*
X890998Y716562D01*
Y714023D01*
X888459Y711484D01*
X883380D01*
X880841Y714023D01*
X425227Y922535D02*
X420148D01*
X422687D01*
Y909839D01*
X420148Y907300D01*
X417609D01*
X415070Y909839D01*
X440462Y907300D02*
X430305D01*
X440462Y917457D01*
Y919996D01*
X437923Y922535D01*
X432844D01*
X430305Y919996D01*
X115821Y208529D02*
X110742D01*
X113281D01*
Y195833D01*
X110742Y193294D01*
X108203D01*
X105664Y195833D01*
X120899Y193294D02*
X125977D01*
X123438D01*
Y208529D01*
X120899Y205990D01*
X724992Y103741D02*
Y88506D01*
X732609D01*
X735149Y91045D01*
Y101202D01*
X732609Y103741D01*
X724992D01*
X747845Y88506D02*
Y103741D01*
X740227Y96124D01*
X750384D01*
X591714Y833105D02*
Y817870D01*
X599331D01*
X601870Y820409D01*
Y830566D01*
X599331Y833105D01*
X591714D01*
X606949Y830566D02*
X609488Y833105D01*
X614566D01*
X617105Y830566D01*
Y828026D01*
X614566Y825487D01*
X612027D01*
X614566D01*
X617105Y822948D01*
Y820409D01*
X614566Y817870D01*
X609488D01*
X606949Y820409D01*
X626796Y431717D02*
Y416482D01*
X634413D01*
X636953Y419021D01*
Y429178D01*
X634413Y431717D01*
X626796D01*
X652188Y416482D02*
X642031D01*
X652188Y426638D01*
Y429178D01*
X649649Y431717D01*
X644570D01*
X642031Y429178D01*
X565313Y436442D02*
X562774Y438981D01*
X557695D01*
X555156Y436442D01*
Y426285D01*
X557695Y423746D01*
X562774D01*
X565313Y426285D01*
X570391D02*
X572930Y423746D01*
X578009D01*
X580548Y426285D01*
Y436442D01*
X578009Y438981D01*
X572930D01*
X570391Y436442D01*
Y433903D01*
X572930Y431363D01*
X580548D01*
X694941Y423230D02*
X692402Y425769D01*
X687323D01*
X684784Y423230D01*
Y413073D01*
X687323Y410534D01*
X692402D01*
X694941Y413073D01*
X700019Y423230D02*
X702558Y425769D01*
X707637D01*
X710176Y423230D01*
Y420691D01*
X707637Y418152D01*
X710176Y415612D01*
Y413073D01*
X707637Y410534D01*
X702558D01*
X700019Y413073D01*
Y415612D01*
X702558Y418152D01*
X700019Y420691D01*
Y423230D01*
X702558Y418152D02*
X707637D01*
X654987Y246806D02*
X652448Y249345D01*
X647369D01*
X644830Y246806D01*
Y236649D01*
X647369Y234110D01*
X652448D01*
X654987Y236649D01*
X660065Y249345D02*
X670222D01*
Y246806D01*
X660065Y236649D01*
Y234110D01*
X240916Y510282D02*
X238377Y512821D01*
X233298D01*
X230759Y510282D01*
Y500125D01*
X233298Y497586D01*
X238377D01*
X240916Y500125D01*
X253612Y497586D02*
Y512821D01*
X245994Y505204D01*
X256151D01*
X275206Y510282D02*
X272666Y512821D01*
X267588D01*
X265049Y510282D01*
Y500125D01*
X267588Y497586D01*
X272666D01*
X275206Y500125D01*
X280284Y510282D02*
X282823Y512821D01*
X287902D01*
X290441Y510282D01*
Y507743D01*
X287902Y505204D01*
X285362D01*
X287902D01*
X290441Y502664D01*
Y500125D01*
X287902Y497586D01*
X282823D01*
X280284Y500125D01*
X88539Y497668D02*
X85999Y500207D01*
X80921D01*
X78382Y497668D01*
Y487511D01*
X80921Y484972D01*
X85999D01*
X88539Y487511D01*
X103774Y484972D02*
X93617D01*
X103774Y495129D01*
Y497668D01*
X101235Y500207D01*
X96156D01*
X93617Y497668D01*
X289049Y310892D02*
X286509Y313431D01*
X281431D01*
X278892Y310892D01*
Y300735D01*
X281431Y298196D01*
X286509D01*
X289049Y300735D01*
X294127Y298196D02*
X299205D01*
X296666D01*
Y313431D01*
X294127Y310892D01*
X845235Y937718D02*
Y942796D01*
X842696Y945335D01*
X832539D01*
X830000Y942796D01*
Y937718D01*
X832539Y935179D01*
X842696D01*
X845235Y937718D01*
Y930100D02*
X832539D01*
X830000Y927561D01*
Y922483D01*
X832539Y919943D01*
X845235D01*
Y914865D02*
Y904708D01*
Y909787D01*
X830000D01*
X845235Y687835D02*
X830000D01*
Y677679D01*
Y672600D02*
X840157Y662443D01*
X830000Y657365D02*
X845235D01*
X830000Y647208D01*
X845235D01*
X448000Y96235D02*
X458157D01*
X453078D01*
Y81000D01*
X463235D02*
Y91157D01*
X468313Y96235D01*
X473392Y91157D01*
Y81000D01*
Y88617D01*
X463235D01*
X478470Y81000D02*
Y96235D01*
X486088D01*
X488627Y93696D01*
Y88617D01*
X486088Y86078D01*
X478470D01*
X493705Y81000D02*
Y91157D01*
X498784Y96235D01*
X503862Y91157D01*
Y81000D01*
Y88617D01*
X493705D01*
X519097Y93696D02*
X516558Y96235D01*
X511479D01*
X508940Y93696D01*
Y91157D01*
X511479Y88617D01*
X516558D01*
X519097Y86078D01*
Y83539D01*
X516558Y81000D01*
X511479D01*
X508940Y83539D01*
X539410Y96235D02*
Y86078D01*
X544489Y81000D01*
X549567Y86078D01*
Y96235D01*
X554646Y81000D02*
X559724D01*
X557185D01*
Y96235D01*
X554646Y93696D01*
X567341Y81000D02*
Y83539D01*
X569881D01*
Y81000D01*
X567341D01*
X580037Y93696D02*
X582576Y96235D01*
X587655D01*
X590194Y93696D01*
Y83539D01*
X587655Y81000D01*
X582576D01*
X580037Y83539D01*
Y93696D01*
D26*
X715000Y783905D02*
G03*
X715000Y791525I0J3810D01*
G01*
D02*
G03*
X715000Y799145I0J3810D01*
G01*
D02*
G03*
X715000Y806765I0J3810D01*
G01*
X140700Y78640D02*
G03*
X140700Y78640I-20000J0D01*
G01*
X242300D02*
G03*
X242300Y78640I-20000J0D01*
G01*
X127000Y377825D02*
G03*
X127000Y384175I0J3175D01*
G01*
Y502285D02*
G03*
X127000Y508635I0J3175D01*
G01*
X546571Y296040D02*
G03*
X546571Y288420I0J-3810D01*
G01*
Y303660D02*
G03*
X546571Y296040I0J-3810D01*
G01*
Y311280D02*
G03*
X546571Y303660I0J-3810D01*
G01*
X594071Y331850D02*
G03*
X579071Y350100I-16625J1625D01*
G01*
X642571Y290725D02*
G03*
X642571Y295475I0J2375D01*
G01*
X660000Y645335D02*
Y945335D01*
X820000Y645335D02*
Y945335D01*
X702500Y675335D02*
X715000D01*
X802000Y820335D02*
Y915335D01*
Y819835D02*
Y820335D01*
X775000Y792835D02*
X802000Y819835D01*
Y675335D02*
Y782835D01*
X715000Y675335D02*
Y783905D01*
X702500Y895335D02*
X715000D01*
Y806765D02*
Y895335D01*
X660000Y945335D02*
X785000D01*
X660000Y645335D02*
X785000D01*
X864070Y642352D02*
Y697752D01*
X926070D01*
X864070Y642352D02*
X926070D01*
X926070D02*
Y650252D01*
X926070Y675252D02*
X926070Y665252D01*
Y690252D02*
Y697751D01*
X105500Y-360D02*
X237500D01*
X105500Y184640D02*
X237500D01*
Y97140D02*
Y184640D01*
Y-360D02*
Y59640D01*
X105500Y-360D02*
Y59640D01*
Y97140D02*
Y184640D01*
X818040Y188000D02*
X846040D01*
X818040Y204000D02*
X846040D01*
X865520Y141010D02*
X893520D01*
X865520Y157010D02*
X893520D01*
X910750Y191651D02*
Y200349D01*
X905670Y192190D02*
X909480Y196000D01*
X905670Y192190D02*
Y199810D01*
X909480Y196000D01*
X818540Y123130D02*
X828540Y123130D01*
X818540Y157130D02*
X828540Y157130D01*
X712321Y266850D02*
X740321D01*
X712321Y250850D02*
X740321D01*
X712321Y200600D02*
X740321D01*
X712321Y216600D02*
X740321D01*
X177615Y817032D02*
X186615D01*
X201615D02*
X210615D01*
X177615Y791032D02*
Y817032D01*
X210615Y791032D02*
Y817032D01*
X201615D02*
Y826032D01*
X186615Y817032D02*
Y826032D01*
X201615D01*
X177615Y791032D02*
X210615D01*
X514912Y788122D02*
Y816122D01*
X498912Y788122D02*
Y816122D01*
X413000Y931670D02*
X568000D01*
X413000D02*
Y961670D01*
X568000D01*
Y931670D02*
Y961670D01*
X26990Y144710D02*
X31990D01*
X26990D02*
Y149710D01*
X381990Y144710D02*
X386990D01*
Y149710D01*
Y939710D02*
Y944710D01*
X381990D02*
X386990D01*
X26990D02*
X31990D01*
X26990Y939710D02*
Y944710D01*
X281700Y884670D02*
Y946670D01*
X124700D02*
X281700D01*
X124700Y884670D02*
Y946670D01*
Y884670D02*
X281700D01*
X311250Y289480D02*
X311250Y279480D01*
X277250Y289480D02*
X277250Y279480D01*
X127000Y352350D02*
X304800D01*
Y409650D01*
X127000D02*
X304800D01*
X127000Y384175D02*
Y409650D01*
Y352350D02*
Y377825D01*
X603652Y752878D02*
X607462Y756688D01*
X599842D02*
X607462D01*
X599842D02*
X603652Y752878D01*
X599303Y751608D02*
X608001D01*
X564052Y809188D02*
Y818188D01*
Y785188D02*
Y794188D01*
X538052Y818188D02*
X564052D01*
X538052Y785188D02*
X564052D01*
Y794188D02*
X573052D01*
X564052Y809188D02*
X573052D01*
Y794188D02*
Y809188D01*
X538052Y785188D02*
Y818188D01*
X255379Y791048D02*
Y819048D01*
X271379Y791048D02*
Y819048D01*
X221382Y791048D02*
Y819048D01*
X237382Y791048D02*
Y819048D01*
X255379Y728070D02*
Y756070D01*
X271379Y728070D02*
Y756070D01*
X133849Y817032D02*
X142849D01*
X157849D02*
X166849D01*
X133849Y791032D02*
Y817032D01*
X166849Y791032D02*
Y817032D01*
X157849D02*
Y826032D01*
X142849Y817032D02*
Y826032D01*
X157849D01*
X133849Y791032D02*
X166849D01*
X221382Y728558D02*
Y756558D01*
X237382Y728558D02*
Y756558D01*
X110750Y476250D02*
X110750Y466250D01*
X76750Y476250D02*
X76750Y466250D01*
X229315Y455050D02*
X239315Y455050D01*
X229315Y489050D02*
X239315Y489050D01*
X263605Y489050D02*
X273605Y489050D01*
X263605Y455050D02*
X273605Y455050D01*
X105790Y269600D02*
Y297600D01*
X89790Y269600D02*
Y297600D01*
X127000Y493810D02*
X177800D01*
Y517110D01*
X127000D02*
X177800D01*
X127000Y508635D02*
Y517110D01*
Y493810D02*
Y502285D01*
X733190Y74750D02*
X737000Y78560D01*
X733190Y74750D02*
X740810D01*
X737000Y78560D02*
X740810Y74750D01*
X732651Y79830D02*
X741349D01*
X643321Y225600D02*
X653321Y225600D01*
X643321Y191600D02*
X653321Y191600D01*
X594071Y273600D02*
Y277350D01*
X492071Y322350D02*
Y326600D01*
X570571Y250100D02*
X594071Y273600D01*
Y322350D02*
Y331850D01*
X492071Y262600D02*
Y277350D01*
Y262600D02*
X504571Y250100D01*
X515571Y350100D02*
X579071D01*
X492071Y326600D02*
X515571Y350100D01*
X504571Y250100D02*
X570571D01*
X683321Y368000D02*
X693321Y368000D01*
X683321Y402000D02*
X693321Y402000D01*
X553571Y415000D02*
X553571Y405000D01*
X587571Y415000D02*
X587571Y405000D01*
X627821Y362850D02*
Y370850D01*
X625321D02*
X627821D01*
X625321Y370850D02*
X625321Y370850D01*
X625321Y370850D02*
Y399850D01*
X627821D01*
X627821Y399850D01*
Y407850D01*
X643821D01*
Y399850D02*
Y407850D01*
Y399850D02*
X646321D01*
X646321Y399850D01*
Y370850D02*
Y399850D01*
X643821Y370850D02*
X646321D01*
X643821Y370850D02*
X643821Y370850D01*
X643821Y362850D02*
Y370850D01*
X627821Y362850D02*
X643821D01*
X635821Y355040D02*
X639631Y358850D01*
X632011D02*
X639631D01*
X632011D02*
X635821Y355040D01*
X641821Y349850D02*
X643821D01*
X627821Y353770D02*
Y357850D01*
Y353770D02*
X643821D01*
Y349850D02*
Y353770D01*
X627821Y357850D02*
X629821D01*
X642571Y295600D02*
Y301850D01*
X673071Y284100D02*
Y301600D01*
X642571Y284350D02*
Y290600D01*
D43*
X906940Y202350D02*
X908210Y203620D01*
Y201080D02*
X909480Y202350D01*
M02*
